<svg height="800" width="800" xmlns="http://www.w3.org/2000/svg" viewBox="0 0 512 512"><path d="M183.49 328.51l-60.4-60.402a17.902 17.902 0 00-5.244 12.66l.002 42.494v52.986a17.85 17.85 0 005.243 12.66 17.857 17.857 0 0012.66 5.243h52.983l42.498.002c4.749 0 9.306-1.888 12.66-5.243l-60.402-60.4z" fill="#efc377"/><path fill="#f4d944" d="M397.604 184.562l-35.083-35.083-35.083-35.08-25.316-25.32-179.033 179.029 60.401 60.402 60.4 60.402L422.92 209.88z"/><path d="M506.469 101.013l-47.742-47.742-47.74-47.741c-6.994-6.991-19.188-6.132-27.235 1.918L302.12 89.079l25.316 25.318 35.083 35.083 35.081 35.081.002.002 25.315 25.316 81.635-81.631c8.052-8.049 8.908-20.244 1.917-27.235z" fill="#dd539c"/><path d="M488.727 232.729c-12.853 0-23.273 10.42-23.273 23.273v209.453H46.545V46.545H256c12.853 0 23.273-10.42 23.273-23.273S268.853 0 256 0H23.273C10.42 0 0 10.42 0 23.273v465.455C0 501.58 10.42 512 23.273 512h465.455C501.58 512 512 501.58 512 488.727V256.002c0-12.855-10.42-23.273-23.273-23.273z" fill="#424ede"/><path d="M123.089 388.911l60.4-60.4-60.4-60.402a17.902 17.902 0 00-5.244 12.66l.002 42.494v52.986c0 4.947 2.004 9.422 5.242 12.662z" fill="#ecb555"/><path fill="#f1cc30" d="M362.521 149.479l-35.083-35.08-25.316-25.32-179.033 179.029 60.401 60.402z"/><path d="M397.604 184.562l25.316 25.318-25.315-25.318zm-35.083-35.083l96.206-96.208-47.74-47.741c-6.994-6.991-19.188-6.132-27.235 1.918L302.12 89.079l25.316 25.318 35.085 35.082z" fill="#db348a"/></svg>